<?xml version="1.0" standalone="no"?>
<!DOCTYPE svg PUBLIC "-//W3C//DTD SVG 20010904//EN"
 "http://www.w3.org/TR/2001/REC-SVG-20010904/DTD/svg10.dtd">
<svg version="1.0" xmlns="http://www.w3.org/2000/svg"
 width="2048.000000pt" height="2048.000000pt" viewBox="0 0 2048.000000 2048.000000"
 preserveAspectRatio="xMidYMid meet">

<g transform="translate(0.000000,2048.000000) scale(0.100000,-0.100000)"
fill="#000000" stroke="none">
<path d="M9823 20469 c-2339 -86 -4568 -973 -6339 -2524 -1149 -1006 -2064
-2267 -2666 -3675 -696 -1625 -954 -3440 -743 -5215 191 -1605 751 -3118 1650
-4460 404 -604 803 -1084 1326 -1600 315 -310 578 -541 902 -793 1523 -1184
3357 -1914 5267 -2097 357 -34 506 -40 990 -40 503 0 646 6 1040 46 3265 327
6175 2218 7826 5085 129 226 353 664 458 901 470 1053 754 2153 850 3293 53
624 46 1361 -19 1970 -217 2018 -1038 3942 -2339 5480 -276 326 -762 824
-1056 1081 -1043 913 -2205 1586 -3490 2021 -937 317 -1900 491 -2920 528
-303 11 -423 11 -737 -1z m1147 -143 c856 -70 1602 -218 2385 -473 2107 -688
3953 -2080 5207 -3928 948 -1397 1524 -2992 1688 -4669 36 -374 44 -557 44
-991 0 -734 -56 -1306 -195 -1997 -328 -1635 -1069 -3178 -2143 -4462 -294
-351 -760 -829 -1081 -1110 -830 -726 -1725 -1289 -2725 -1716 -1869 -797
-3966 -1004 -5982 -590 -2468 506 -4683 1948 -6157 4008 -514 719 -947 1530
-1249 2342 -335 901 -528 1782 -608 2770 -21 265 -30 975 -15 1255 49 937 213
1819 499 2680 708 2131 2118 3974 3997 5224 1504 1000 3189 1561 5025 1671
230 13 1083 4 1310 -14z"/>
<path d="M9885 17373 c-317 -18 -533 -40 -780 -79 -2041 -318 -3850 -1521
-4942 -3284 -884 -1426 -1231 -3110 -987 -4785 400 -2742 2388 -5018 5056
-5791 968 -280 1973 -350 2993 -208 1610 224 3126 1025 4235 2239 1416 1550
2070 3610 1809 5700 -323 2588 -2062 4804 -4509 5745 -682 263 -1409 417
-2160 460 -158 9 -588 11 -715 3z m878 -138 c717 -58 1376 -211 2027 -470
2325 -924 3987 -3028 4340 -5494 46 -325 61 -521 67 -881 9 -555 -30 -996
-133 -1510 -240 -1191 -794 -2308 -1603 -3230 -135 -154 -435 -455 -596 -598
-1096 -977 -2483 -1592 -3920 -1736 -512 -52 -1099 -47 -1590 14 -1208 148
-2358 613 -3335 1346 -852 640 -1535 1448 -2026 2399 -617 1196 -872 2554
-734 3905 123 1207 554 2351 1259 3341 511 717 1198 1371 1933 1839 1026 653
2178 1021 3408 1089 216 12 667 5 903 -14z"/>
<path d="M9990 15234 c-737 -41 -1393 -214 -2018 -530 -1232 -623 -2163 -1747
-2535 -3059 -134 -472 -191 -879 -191 -1375 0 -460 45 -820 155 -1249 89 -346
190 -613 364 -966 258 -521 550 -922 976 -1342 794 -781 1815 -1262 2944
-1389 191 -21 678 -29 880 -15 954 70 1846 400 2605 964 377 280 732 632 1011
1002 470 623 781 1333 923 2106 57 308 70 473 70 879 1 404 -8 525 -60 833
-230 1365 -1015 2567 -2175 3330 -677 445 -1440 713 -2254 792 -157 15 -566
26 -695 19z m-2132 -816 c7 -7 12 -34 12 -60 0 -40 5 -53 26 -73 14 -13 35
-27 45 -30 11 -4 28 -24 39 -46 11 -21 21 -39 23 -40 1 0 22 -2 47 -5 76 -8
100 -22 100 -58 0 -24 10 -41 41 -71 23 -22 50 -59 61 -83 11 -24 29 -47 42
-52 13 -5 37 -25 53 -45 33 -39 51 -39 78 1 19 30 32 30 41 2 8 -28 22 -38 51
-38 33 0 38 19 12 46 -16 18 -20 27 -12 35 8 8 25 4 61 -17 52 -29 86 -28 80
3 -2 10 -32 37 -68 60 -68 45 -100 76 -100 99 0 7 11 26 25 41 l24 28 31 -32
c33 -35 58 -45 105 -41 29 3 30 2 30 -39 0 -23 6 -47 13 -54 16 -17 15 -29 -5
-52 -17 -18 -17 -20 20 -51 39 -32 39 -33 32 -87 -6 -48 -4 -56 17 -75 13 -12
39 -24 59 -28 26 -5 46 -19 80 -60 59 -72 72 -79 159 -85 69 -6 76 -8 88 -33
15 -31 33 -36 52 -13 17 20 32 19 64 -6 34 -27 41 -19 41 39 l0 47 47 3 c66 4
77 47 18 72 -16 7 -36 20 -46 31 -16 18 -16 20 0 38 10 11 28 22 42 25 18 5
24 13 24 35 0 23 5 30 28 34 23 5 34 -2 83 -56 69 -76 88 -132 64 -190 -23
-56 -20 -67 15 -57 53 15 105 -47 65 -80 -8 -7 -15 -27 -15 -44 0 -17 -10 -51
-21 -76 -20 -44 -20 -46 -3 -97 17 -50 17 -54 1 -88 -22 -47 -21 -71 3 -88 30
-21 40 -61 40 -156 0 -99 -18 -172 -51 -207 -19 -20 -21 -30 -15 -74 4 -31 2
-58 -4 -71 -16 -29 -7 -33 29 -15 16 9 39 16 50 16 37 0 212 -78 232 -104 11
-14 35 -29 52 -34 l32 -8 3 -181 2 -180 -132 -6 c-213 -9 -379 -45 -549 -117
-90 -38 -208 -111 -247 -153 l-23 -24 58 -12 c257 -51 584 -26 751 58 33 17
79 33 101 37 l41 7 0 -350 0 -349 -157 -67 c-351 -150 -488 -250 -545 -399
-17 -44 -19 -69 -16 -150 4 -88 9 -106 42 -172 78 -158 249 -261 591 -356 44
-12 83 -25 86 -28 4 -4 10 -137 14 -297 l7 -290 -159 -70 c-179 -78 -291 -149
-324 -202 l-22 -36 58 -438 c33 -241 61 -437 63 -435 1 2 9 170 17 372 8 203
19 385 23 404 25 100 66 136 214 185 62 21 118 40 124 42 8 3 14 -36 18 -129
11 -198 34 -497 51 -634 14 -114 43 -285 50 -292 5 -5 33 164 50 293 20 161
43 459 51 682 4 100 10 185 13 190 3 5 36 30 72 55 89 63 171 154 211 235 28
58 33 77 33 143 0 62 -5 85 -28 131 -34 71 -109 146 -204 207 l-74 46 6 441
c5 312 10 442 19 448 6 4 39 24 73 45 137 81 226 174 282 292 22 49 25 68 26
165 0 108 -1 113 -38 187 -47 97 -144 189 -249 241 -40 19 -81 37 -90 40 -16
6 -18 23 -18 164 l0 158 88 1 c48 0 144 3 214 7 104 5 128 4 138 -8 18 -22 57
-18 70 5 13 24 52 26 71 4 27 -33 70 -46 139 -42 55 3 76 9 110 33 37 26 52
30 104 29 34 0 80 -4 102 -8 32 -6 47 -4 67 9 34 22 79 8 119 -35 23 -26 34
-30 81 -30 29 0 73 -6 98 -14 24 -8 67 -17 96 -20 44 -4 57 -1 89 20 42 29 64
25 64 -10 0 -14 4 -27 9 -30 13 -8 121 14 160 33 27 12 65 16 165 16 72 1 154
4 181 9 47 7 53 6 89 -23 24 -19 50 -31 69 -31 24 0 42 -13 87 -61 52 -56 61
-61 86 -55 73 18 89 18 124 -6 26 -17 42 -40 59 -86 24 -61 25 -62 56 -56 27
5 33 2 43 -21 26 -58 3 -134 -47 -150 -28 -8 -105 29 -156 76 -25 23 -51 39
-59 36 -8 -3 -17 -24 -21 -46 -4 -22 -13 -45 -20 -51 -12 -10 -12 -18 2 -51
21 -54 12 -109 -26 -157 -46 -58 -58 -116 -43 -203 7 -40 10 -74 7 -78 -3 -3
-23 15 -45 39 -31 36 -41 43 -51 33 -10 -10 -10 -23 4 -66 21 -67 21 -96 0
-119 -20 -23 -105 -25 -156 -3 -38 16 -87 20 -87 8 0 -5 9 -21 20 -38 11 -16
20 -33 20 -36 0 -3 -23 -4 -50 -1 l-51 5 2 -85 c2 -66 -2 -93 -17 -124 -25
-52 -50 -52 -47 -1 2 22 -2 48 -8 58 -13 25 -51 24 -74 -1 -24 -26 -35 -25
-61 7 -14 18 -26 24 -38 20 -15 -6 -17 -17 -14 -69 3 -61 2 -63 -22 -63 -20 0
-29 9 -45 43 -25 54 -52 57 -60 5 -23 -130 -38 -146 -135 -137 -36 4 -76 12
-90 19 -14 7 -46 16 -71 20 -37 6 -47 4 -52 -9 -7 -19 0 -44 19 -67 12 -13 9
-21 -19 -52 -24 -27 -36 -34 -47 -27 -26 17 -49 11 -67 -16 -13 -21 -14 -30
-5 -45 17 -26 4 -49 -27 -49 -53 0 -66 -29 -39 -83 14 -28 16 -42 8 -56 -5
-11 -10 -31 -10 -44 0 -27 -15 -43 -45 -49 -26 -4 -31 -40 -10 -72 24 -36 13
-69 -27 -87 -48 -21 -46 -58 5 -82 35 -18 37 -21 37 -66 0 -40 7 -55 45 -106
25 -33 45 -69 45 -79 0 -11 7 -27 16 -37 12 -14 13 -22 4 -39 -13 -24 1 -80
24 -99 8 -7 16 -49 20 -114 8 -125 21 -173 47 -187 27 -15 56 -4 63 25 8 31 0
50 -30 70 -22 14 -24 22 -24 99 0 67 4 88 19 107 l19 23 20 -39 c11 -22 43
-64 70 -93 51 -52 51 -52 35 -81 -16 -27 -16 -29 8 -62 34 -48 49 -113 42
-186 -7 -74 5 -82 52 -33 32 33 50 38 59 15 8 -22 24 -18 28 8 2 18 10 22 41
24 63 2 86 12 133 55 55 51 97 128 88 162 -3 13 -23 41 -45 62 -39 38 -40 41
-38 102 2 59 0 65 -27 87 l-29 23 38 15 c31 14 37 21 37 46 0 31 21 43 35 21
3 -5 23 -10 45 -10 29 0 48 8 80 35 23 19 47 35 53 35 6 0 19 7 29 17 26 23
25 130 -2 203 -26 72 -26 131 0 155 26 24 50 5 50 -40 0 -71 67 -80 127 -17
37 39 44 42 90 42 48 0 52 -2 72 -36 21 -35 47 -38 36 -4 -7 21 14 60 31 60
21 0 32 -85 19 -145 -5 -25 -3 -32 17 -40 19 -8 23 -17 21 -49 -2 -25 4 -48
17 -65 10 -15 24 -50 31 -77 6 -27 16 -57 21 -66 4 -10 13 -63 18 -119 9 -98
9 -102 -14 -132 -32 -42 -35 -156 -5 -183 21 -19 25 -44 9 -60 -8 -8 -5 -20 7
-42 17 -30 17 -32 0 -61 -22 -38 -22 -58 3 -66 11 -3 23 -18 26 -33 11 -51 13
-54 36 -47 38 12 43 11 40 -10 -24 -145 -21 -163 37 -191 23 -11 47 -27 52
-35 13 -21 10 -99 -6 -144 -18 -49 -19 -99 -3 -128 7 -12 15 -76 19 -142 5
-86 14 -146 34 -213 29 -100 29 -136 -1 -213 -20 -53 -16 -71 42 -160 38 -60
41 -83 18 -137 -12 -28 -17 -80 -19 -224 -2 -103 -6 -200 -10 -216 -3 -16 1
-60 9 -96 9 -37 16 -83 16 -101 0 -19 13 -69 28 -112 28 -77 31 -103 9 -103
-6 0 -23 -12 -38 -26 -23 -22 -30 -24 -48 -14 -27 14 -41 49 -41 103 -1 70
-40 98 -106 77 -32 -11 -38 -10 -58 10 -13 11 -31 40 -41 63 -28 69 -31 72
-61 72 -26 0 -30 -4 -34 -35 -5 -32 -8 -35 -42 -38 -39 -3 -68 -30 -68 -63 0
-9 -15 -26 -34 -37 -46 -27 -54 -63 -21 -106 29 -38 26 -54 -17 -86 -27 -20
-30 -26 -26 -65 3 -24 18 -61 35 -86 16 -24 35 -62 41 -84 31 -114 42 -144 71
-190 17 -27 35 -70 40 -95 5 -25 12 -53 16 -62 4 -12 3 -18 -5 -18 -23 0 -71
42 -85 76 -8 19 -21 34 -29 34 -18 0 -36 30 -36 60 0 38 -77 153 -150 225 -40
39 -78 84 -86 102 -9 20 -14 69 -14 131 0 88 -3 104 -27 153 -17 31 -41 62
-60 74 -36 22 -44 63 -17 86 21 18 51 78 59 120 9 46 -10 116 -42 153 -35 41
-83 141 -83 171 0 15 5 36 11 47 8 15 7 47 -2 122 -7 55 -13 119 -14 141 -1
22 -2 52 -3 66 -1 15 -20 53 -42 85 -46 68 -48 80 -19 135 17 34 18 46 10 71
-16 45 -13 65 8 71 11 2 35 27 55 54 34 47 70 73 102 73 20 0 88 29 82 35 -4
5 -43 -1 -135 -21 -13 -2 -55 -36 -94 -75 -57 -58 -69 -75 -64 -93 13 -39 10
-60 -7 -64 -21 -4 -34 41 -42 158 -9 112 -27 146 -141 271 -52 56 -95 106 -95
111 0 6 -32 43 -71 84 -65 67 -72 78 -77 122 -3 34 1 59 13 81 9 18 14 43 11
55 -3 13 2 32 11 46 12 17 13 21 2 15 -37 -21 -49 -40 -49 -76 0 -30 -6 -42
-25 -55 -19 -12 -24 -24 -22 -48 2 -28 -1 -31 -30 -34 -20 -2 -37 -11 -43 -23
-14 -25 -45 -24 -64 2 -18 26 -50 19 -42 -8 3 -10 1 -25 -4 -33 -8 -13 -14
-13 -42 -1 -64 26 -113 12 -73 -21 41 -33 65 -58 65 -68 0 -6 -24 -36 -54 -67
l-54 -57 -44 13 c-23 7 -59 25 -78 40 -55 43 -57 43 -98 20 -61 -35 -118 -8
-164 79 -9 17 -38 46 -65 64 -84 57 -110 91 -126 163 -18 79 -38 112 -74 121
-23 6 -35 -2 -95 -64 -38 -39 -67 -76 -63 -82 3 -5 32 -10 64 -10 84 0 95 -15
99 -139 4 -123 5 -128 37 -107 49 32 57 24 70 -69 9 -64 19 -81 55 -100 16 -9
37 -26 46 -40 15 -22 14 -28 -2 -77 -12 -35 -18 -83 -19 -141 0 -80 -2 -90
-23 -105 -20 -15 -22 -23 -16 -60 6 -38 4 -45 -30 -82 -20 -22 -36 -44 -36
-50 0 -5 -19 -20 -43 -34 -24 -14 -53 -39 -65 -56 -13 -16 -28 -30 -34 -30 -6
0 -16 -8 -23 -17 -11 -15 -14 -14 -28 13 -8 16 -25 37 -36 47 -16 13 -19 22
-13 35 5 9 22 54 37 100 15 45 32 82 36 82 5 0 9 17 9 38 0 29 7 45 30 67 37
35 37 48 5 69 -29 19 -31 35 -9 93 22 57 12 154 -24 225 -25 49 -30 53 -67 56
-55 5 -62 15 -32 51 28 34 27 59 -5 88 -19 17 -19 17 -13 -10 10 -38 -12 -85
-47 -103 -16 -8 -28 -21 -25 -27 3 -10 44 -35 81 -50 5 -1 10 -33 11 -70 1
-59 5 -72 38 -120 42 -61 46 -86 16 -113 -12 -10 -33 -43 -47 -72 -14 -30 -38
-63 -53 -74 -29 -21 -82 -98 -93 -134 -11 -36 -51 -66 -82 -62 -38 4 -44 41
-13 74 29 31 20 40 -20 20 -16 -9 -37 -16 -46 -16 -11 0 -15 -10 -15 -38 0
-64 -33 -78 -105 -43 -22 11 -48 22 -57 25 -11 3 -18 15 -18 31 0 15 -6 25
-14 25 -24 0 -29 -19 -12 -45 27 -41 19 -64 -45 -129 -33 -33 -72 -81 -86
-106 -37 -64 -63 -90 -90 -90 -53 0 -48 107 7 138 20 11 34 32 46 69 10 29 14
56 10 60 -10 11 -34 -23 -48 -69 -11 -37 -11 -37 -38 -22 -54 32 -59 73 -12
88 16 5 46 76 36 85 -9 10 -80 -58 -103 -98 l-23 -42 21 -23 c13 -13 21 -35
21 -56 0 -31 -1 -32 -17 -18 -10 8 -26 18 -35 21 -25 9 -40 81 -36 174 2 64 0
83 -10 83 -8 0 -19 -13 -25 -30 -6 -16 -15 -30 -19 -30 -5 0 -13 -11 -18 -25
-13 -34 -30 -32 -30 4 0 39 -14 47 -29 15 -15 -34 -14 -44 8 -68 30 -32 61
-138 61 -207 0 -60 -1 -61 -18 -46 -23 21 -32 21 -32 0 0 -24 -30 -53 -55 -53
-26 0 -50 24 -40 40 3 5 -3 22 -14 36 -14 18 -18 34 -14 59 7 41 -8 46 -31 13
-22 -30 -20 -55 4 -68 30 -16 26 -58 -6 -70 -44 -17 -85 24 -55 56 5 5 12 38
15 74 6 63 6 64 -9 38 -18 -32 -23 -33 -49 -13 -11 9 -41 15 -68 15 -26 0 -48
4 -48 9 0 14 23 63 44 93 12 19 16 36 12 54 -9 34 -28 26 -46 -22 -20 -52 -28
-64 -45 -64 -11 0 -11 8 2 46 12 37 13 53 4 84 -6 20 -11 48 -11 61 0 26 -25
69 -40 69 -5 0 -18 -21 -29 -46 l-21 -46 21 -26 c16 -21 19 -35 14 -69 -4 -29
-1 -51 10 -73 21 -41 17 -124 -6 -128 -11 -2 -20 8 -27 27 -14 40 -42 42 -42
4 1 -16 7 -39 15 -53 9 -16 14 -53 14 -100 0 -74 0 -75 -36 -102 -48 -37 -80
-37 -89 0 -4 15 -16 41 -26 57 -29 49 -32 59 -19 63 7 2 24 14 39 27 31 26 34
80 7 121 -9 14 -19 44 -23 67 -5 28 -13 43 -25 45 -25 5 -22 -50 5 -98 22 -38
22 -39 4 -59 -11 -12 -24 -31 -30 -43 -22 -43 -36 -33 -36 27 0 53 -2 57 -36
77 -28 16 -34 26 -32 46 2 18 11 28 28 33 l25 7 -24 1 c-23 1 -23 3 -17 61 7
58 6 59 -23 74 -36 19 -49 6 -27 -26 20 -28 20 -57 1 -64 -22 -9 -64 22 -71
51 -3 14 -10 25 -14 25 -11 0 -21 -30 -14 -42 3 -5 0 -39 -7 -74 l-13 -65 32
-25 c42 -34 42 -72 -1 -144 -41 -68 -61 -72 -63 -10 -4 105 -23 200 -48 237
-15 21 -26 43 -26 49 0 7 16 28 36 48 l37 37 -27 27 c-31 34 -33 53 -6 77 21
19 26 50 10 60 -5 3 -10 23 -10 44 0 29 -7 44 -34 70 -19 19 -40 47 -47 63
-10 25 -9 32 10 52 27 28 26 40 -1 77 -20 27 -21 32 -8 62 8 18 14 53 14 79 1
38 -4 52 -27 75 -31 34 -33 40 -12 63 14 16 14 22 -1 59 -14 36 -15 49 -4 84
12 40 11 41 -22 69 l-33 29 30 22 c44 33 75 65 75 77 0 6 -20 30 -45 53 -25
24 -45 53 -45 64 0 11 -11 40 -24 64 -33 61 -39 94 -21 109 8 7 15 28 15 47 0
51 35 111 68 119 45 10 52 13 58 28 3 8 -11 31 -34 55 -37 39 -42 41 -67 29
-24 -11 -28 -9 -49 17 -25 32 -46 27 -46 -11 0 -29 -25 -32 -40 -4 -6 11 -36
33 -68 48 -52 26 -57 31 -60 65 -3 30 0 37 14 37 10 0 25 -7 35 -16 11 -10 25
-14 35 -10 15 6 14 10 -9 34 -34 35 -34 49 -2 64 14 6 25 17 25 25 0 8 18 31
40 52 27 25 40 47 40 64 0 38 -20 44 -42 14 -20 -27 -42 -32 -86 -21 -19 6
-22 11 -17 38 5 27 2 33 -25 48 -18 10 -30 25 -30 38 0 28 -44 48 -71 32 -18
-12 -19 -10 -17 29 4 54 -19 66 -24 12 -4 -47 -34 -59 -44 -18 -10 39 21 109
62 140 39 30 44 67 9 73 -52 10 -38 42 18 42 36 0 37 34 1 71 -33 35 -25 51
19 38 37 -10 104 -11 130 -1 10 4 33 35 51 68 29 52 32 62 20 78 -9 13 -10 24
-3 37 18 34 -6 94 -47 119 -41 24 -40 29 7 35 63 8 80 57 60 165 -14 70 -45
90 -139 90 -61 0 -84 5 -111 21 -23 14 -62 24 -115 28 -89 9 -154 33 -207 78
-18 16 -50 40 -69 53 -50 34 -170 151 -170 165 0 7 -7 18 -15 25 -8 7 -20 30
-27 51 -7 24 -24 49 -45 65 -42 32 -42 57 2 82 20 12 47 43 64 74 36 64 86
113 124 122 44 10 44 33 1 77 -38 39 -38 41 -20 55 19 13 45 19 75 14 7 -1 42
-25 76 -55 69 -58 101 -73 119 -55 8 9 1 20 -29 46 l-40 35 30 -3 c26 -3 30 1
33 25 4 31 18 34 50 11 29 -20 42 -11 42 33 0 19 9 48 21 64 29 41 34 89 15
147 -26 78 1 111 79 96 23 -4 44 -17 57 -35 27 -36 47 -37 78 -4 28 30 35 31
68 5 l25 -20 23 21 23 22 45 -27 c54 -31 60 -32 98 -5 29 21 29 21 35 1 6 -24
63 -38 93 -22 11 6 23 23 26 38 3 15 17 44 31 64 40 60 10 100 -69 90 -33 -4
-38 -1 -52 27 -9 17 -21 31 -26 31 -5 0 -17 11 -26 26 -16 24 -16 26 5 55 27
36 23 59 -19 117 -34 47 -56 55 -46 17 8 -30 -17 -35 -46 -8 -17 15 -20 15
-48 -5 -39 -29 -68 -28 -101 4 -17 16 -49 31 -81 38 -46 11 -55 17 -70 48 -12
26 -25 37 -48 41 -31 7 -53 38 -32 45 36 12 -23 102 -66 102 -32 0 -81 48
-113 112 -33 65 -51 78 -77 56 -9 -9 -34 -18 -55 -21 -35 -5 -43 -2 -78 31
-32 30 -41 47 -48 89 -7 45 -5 54 12 72 20 19 20 21 4 39 -9 10 -17 23 -17 28
0 16 53 65 103 95 26 16 47 32 47 37 0 5 -18 16 -40 25 -51 20 -56 54 -9 64
19 3 34 14 39 28 12 30 86 69 135 69 29 1 39 5 37 15 -5 23 27 80 72 127 l43
45 79 -3 c75 -3 79 -2 82 19 2 15 -7 29 -27 44 -35 26 -40 49 -11 49 36 0 21
30 -25 51 -34 15 -56 18 -93 13 -66 -8 -92 6 -92 52 0 39 45 136 83 177 29 30
37 33 55 15z m1860 -2573 c41 -14 -38 -55 -119 -62 -65 -6 -83 7 -51 39 32 32
107 42 170 23z m639 -233 c56 -116 38 -244 -48 -328 l-39 -38 0 239 0 239 30
-29 c17 -16 42 -53 57 -83z m-354 -1119 c3 -175 4 -320 1 -322 -11 -11 -167
37 -245 76 -202 101 -238 234 -95 360 38 34 311 203 327 203 3 0 9 -143 12
-317z m326 -727 c29 -29 35 -45 39 -91 6 -74 -16 -129 -74 -185 l-47 -45 7
139 c3 77 6 161 6 188 0 43 2 48 18 39 9 -5 32 -25 51 -45z m1226 -1329 c11
-37 25 -60 49 -79 31 -25 35 -33 34 -75 0 -27 1 -52 2 -58 8 -33 -1 -45 -34
-45 -21 0 -36 -6 -40 -16 -9 -23 -26 -7 -26 26 0 16 -4 32 -10 35 -5 3 -10 17
-10 30 0 17 -9 29 -29 39 -34 18 -45 41 -31 66 6 10 10 30 10 44 0 15 8 30 20
36 11 6 23 22 26 35 9 35 21 22 39 -38z m-490 -154 c3 -32 17 -79 30 -104 28
-53 31 -92 12 -167 -19 -71 -62 -130 -113 -154 -23 -10 -50 -28 -60 -39 -30
-33 -44 -24 -44 30 0 32 6 56 19 72 48 61 61 105 61 201 1 150 23 218 71 218
14 0 19 -11 24 -57z"/>
<path d="M4983 8236 l-20 -55 52 -123 c28 -68 64 -147 79 -177 15 -29 25 -58
23 -65 -15 -37 -181 -48 -235 -16 -43 27 -67 81 -53 122 13 38 7 48 -29 48
-23 0 -31 -7 -45 -42 -24 -59 -24 -146 1 -189 32 -54 100 -82 210 -87 l93 -4
-28 -37 c-47 -59 -68 -152 -51 -226 6 -26 9 -49 7 -52 -3 -2 -89 52 -193 121
-104 69 -192 122 -196 118 -4 -4 -17 -34 -28 -66 l-20 -59 25 -64 c48 -118 51
-157 21 -267 -16 -55 -26 -116 -24 -140 l3 -43 239 147 240 147 33 -20 c90
-53 233 3 299 118 10 17 13 15 37 -26 54 -91 57 -199 8 -261 -11 -13 -146
-113 -300 -222 l-281 -198 0 -69 0 -70 53 39 c317 234 698 512 701 512 2 0 47
-55 100 -122 52 -68 131 -165 176 -217 l81 -94 -27 -18 c-41 -27 -109 -42
-161 -36 -63 7 -93 40 -93 103 l0 46 -32 -7 c-40 -9 -47 -19 -49 -65 -3 -100
24 -164 81 -192 47 -24 151 -23 229 1 34 10 61 18 61 17 0 -1 -9 -19 -20 -41
-23 -46 -26 -109 -6 -183 13 -53 9 -65 -15 -36 -23 28 -125 93 -181 115 -68
27 -138 22 -174 -12 -22 -21 -25 -30 -21 -71 5 -60 39 -105 105 -141 72 -39
139 -46 192 -18 l42 22 34 -22 c66 -40 83 -102 43 -153 -118 -150 -422 23
-560 319 l-32 68 -39 -104 -38 -104 124 -245 c146 -288 212 -437 270 -612 40
-118 44 -126 54 -102 7 14 12 33 12 42 0 10 -40 152 -90 317 -49 165 -90 300
-90 301 0 1 37 -13 82 -31 155 -64 277 -70 339 -17 39 32 79 115 79 163 0 20
-7 58 -15 85 -20 65 -19 65 13 48 103 -54 222 -3 258 111 l17 54 51 -46 c28
-25 100 -86 160 -137 l108 -91 -67 -7 c-94 -9 -160 -36 -217 -87 -59 -53 -84
-95 -137 -233 -23 -58 -57 -126 -76 -151 -39 -51 -104 -87 -156 -87 -29 0
-122 28 -181 54 -15 7 -16 4 -5 -25 14 -36 70 -67 172 -94 75 -19 118 -19 186
1 77 23 120 73 203 234 38 74 84 158 103 187 95 145 187 181 294 114 50 -31
51 -31 46 -9 -3 13 -9 40 -12 60 -6 32 -24 50 -153 156 -290 236 -550 494
-784 775 -141 169 -208 261 -208 284 0 12 16 45 35 74 63 92 40 91 -80 -6 -61
-48 -116 -93 -124 -99 -8 -7 -6 5 7 31 30 58 36 110 20 158 -8 22 -62 120
-121 217 -129 214 -252 451 -336 653 -35 83 -67 154 -71 158 -4 4 -16 -17 -27
-47z m290 -686 c37 -66 67 -131 67 -144 0 -16 -17 -41 -46 -70 -36 -36 -53
-46 -79 -46 -94 0 -175 168 -132 273 15 35 89 107 110 107 6 0 42 -54 80 -120z
m-476 -229 c57 -36 103 -68 102 -71 0 -5 -204 -125 -230 -135 -13 -5 -14 2 -5
61 9 65 0 181 -20 229 -9 23 -21 30 153 -84z m1380 -953 c90 -89 103 -107 103
-136 0 -62 -34 -101 -88 -102 -43 0 -82 21 -121 66 -41 46 -52 77 -52 140 0
49 31 134 49 134 3 0 53 -46 109 -102z"/>
<path d="M15430 8236 c-33 -18 -51 -36 -67 -69 -24 -50 -52 -61 -127 -51 -24
4 -51 2 -60 -3 -12 -7 20 -22 129 -63 l145 -55 -62 -13 c-96 -19 -117 -42
-232 -253 -56 -101 -119 -213 -140 -249 -117 -193 -322 -480 -469 -656 -54
-65 -66 -74 -95 -74 -18 0 -52 9 -74 20 -45 22 -68 25 -68 11 0 -5 49 -48 110
-96 60 -47 112 -90 115 -95 3 -5 -8 -5 -27 1 -53 15 -106 11 -151 -12 -23 -12
-116 -94 -207 -183 -185 -181 -265 -253 -427 -383 l-112 -91 37 -6 c70 -11 86
-7 146 44 33 27 61 48 62 47 1 -1 90 -108 199 -237 220 -263 239 -279 340
-279 100 -1 190 56 252 160 48 80 66 163 61 284 -3 90 -7 110 -33 161 -64 125
-217 178 -317 110 -78 -52 -100 -138 -52 -195 21 -25 33 -31 65 -31 45 0 84
17 113 49 11 12 22 21 26 21 4 0 18 -23 30 -52 19 -45 22 -65 18 -147 -5 -109
-25 -166 -77 -218 -34 -34 -81 -52 -117 -45 -13 2 -106 101 -229 244 l-207
240 58 51 c33 28 129 119 214 202 168 164 200 188 274 205 86 19 98 11 385
-243 l263 -234 60 12 c32 7 61 15 64 18 4 3 -629 552 -695 603 -1 2 48 67 111
146 122 153 206 267 306 416 35 50 65 92 68 92 18 0 64 -36 60 -47 -37 -95
-148 -644 -134 -658 2 -2 50 2 107 10 97 14 106 17 145 53 140 129 316 199
528 209 74 4 122 10 128 18 8 9 -70 61 -309 206 l-319 194 17 29 c27 49 106
121 157 146 82 38 208 36 220 -5 2 -5 -11 -17 -29 -26 -41 -20 -77 -82 -77
-135 0 -49 37 -94 78 -94 40 0 105 44 130 88 24 44 30 128 11 165 -41 80 -116
111 -254 105 -82 -3 -101 -8 -167 -41 -70 -34 -147 -101 -175 -150 -9 -18 -11
-18 -41 0 l-31 19 36 60 c19 32 69 122 111 199 80 148 124 205 184 236 72 37
96 30 431 -121 170 -77 315 -140 321 -140 14 0 116 53 116 61 0 3 -188 86
-417 184 -230 98 -422 182 -427 186 -5 4 3 38 19 76 15 37 29 74 32 81 7 17
-5 15 -57 -12z m-18 -1137 c108 -68 197 -127 198 -131 0 -5 -13 -8 -29 -8 -93
0 -258 -56 -385 -130 -38 -22 -71 -38 -74 -35 -16 15 64 438 82 432 6 -2 99
-59 208 -128z"/>
<path d="M7322 5520 l20 -60 121 -69 c222 -125 567 -291 737 -353 30 -11 59
-24 63 -28 8 -7 -202 -580 -213 -580 -3 0 -27 34 -54 75 l-49 75 26 38 c53 77
69 128 65 211 -4 98 -32 156 -112 237 -74 74 -144 104 -242 104 -112 0 -179
-46 -179 -123 0 -56 32 -99 97 -131 60 -30 101 -33 158 -10 47 19 60 38 60 88
0 43 13 46 60 14 44 -31 73 -89 78 -160 5 -73 -8 -106 -63 -157 -56 -52 -110
-67 -189 -53 -239 44 -380 246 -362 517 3 50 12 113 20 142 13 50 13 52 -9 73
l-23 22 -33 -98 c-61 -189 -50 -373 32 -536 38 -75 128 -172 189 -203 105 -53
224 -69 305 -40 46 17 51 14 96 -56 45 -71 77 -164 90 -269 6 -49 17 -94 23
-99 8 -7 56 114 170 432 88 243 161 444 162 446 6 7 284 -91 284 -100 0 -5
-54 -189 -121 -408 l-121 -399 42 -56 c24 -31 44 -55 46 -53 2 1 60 203 129
447 70 245 127 445 128 447 1 1 34 -7 72 -18 39 -11 75 -18 82 -17 7 2 -3 22
-23 50 -29 38 -45 50 -88 62 -47 14 -54 20 -60 47 -15 78 10 121 95 165 221
111 456 48 722 -195 43 -40 57 -49 57 -35 0 29 -225 242 -306 290 -113 67
-198 97 -289 102 -186 10 -385 -95 -385 -203 0 -18 13 -52 31 -79 16 -27 28
-51 25 -54 -9 -8 -269 81 -471 161 -203 80 -611 281 -787 387 -65 38 -120 70
-122 70 -3 0 4 -27 16 -60z"/>
<path d="M12510 5254 c-263 -124 -742 -304 -813 -304 -31 0 -74 39 -83 75 -6
25 -54 54 -54 32 1 -6 23 -91 49 -187 27 -96 48 -176 46 -178 -1 -1 -20 14
-41 34 -21 20 -73 53 -114 73 -68 33 -83 36 -160 36 -95 0 -136 -15 -225 -82
-175 -134 -157 -282 26 -217 57 21 96 13 105 -20 8 -34 -2 -61 -37 -96 l-30
-29 23 -6 c13 -3 43 -6 68 -7 l44 -3 106 127 c58 69 114 139 126 154 l20 28
46 -33 c41 -29 88 -93 88 -119 0 -5 -19 -13 -43 -16 -57 -9 -143 -60 -167 -99
-49 -80 -8 -174 80 -184 145 -16 234 89 146 172 l-35 32 38 12 c113 34 201
-22 201 -127 0 -54 -18 -89 -71 -136 -56 -51 -132 -85 -231 -102 -245 -43
-474 99 -652 402 -25 44 -45 65 -66 72 -16 6 -30 8 -30 4 0 -11 72 -150 102
-197 80 -126 221 -273 312 -326 96 -55 170 -73 291 -73 160 0 262 34 352 117
67 62 103 130 103 196 0 102 -50 169 -166 222 l-60 27 -48 162 c-26 89 -46
164 -44 165 2 2 84 30 183 63 175 58 410 148 548 211 38 17 72 31 77 31 4 0
13 -13 20 -30 12 -29 11 -31 -41 -76 -103 -89 -461 -456 -452 -464 4 -4 46
-29 93 -55 l85 -47 85 16 c139 25 191 28 274 17 100 -14 235 -61 301 -104 47
-32 122 -63 130 -55 2 1 -88 192 -200 423 l-203 420 89 45 c49 24 89 47 89 51
0 6 -105 30 -119 28 -3 -1 -76 -34 -161 -75z m209 -508 c56 -121 100 -221 98
-222 -2 -2 -38 10 -80 27 -104 40 -203 59 -349 67 l-122 7 171 175 c94 96 174
173 176 170 3 -3 50 -104 106 -224z m-1286 -8 c15 -6 27 -13 27 -17 0 -3 -34
-46 -76 -94 l-76 -89 -19 31 c-21 34 -43 48 -95 59 l-37 8 33 37 c66 75 153
99 243 65z"/>
<path d="M9100 4818 c-56 -29 -83 -76 -76 -132 8 -67 57 -116 147 -146 l53
-18 -35 -14 c-19 -8 -91 -34 -160 -58 l-125 -44 44 -77 c24 -43 49 -82 55 -87
7 -5 41 -19 77 -31 173 -61 284 -151 391 -316 32 -49 73 -110 91 -135 l32 -45
8 30 c4 17 26 221 48 455 23 234 43 435 46 448 4 21 9 23 42 18 20 -3 82 -8
136 -12 l99 -7 -6 -126 c-4 -69 -10 -189 -13 -266 l-7 -140 73 -65 73 -65 35
45 c63 79 155 162 242 219 86 56 186 108 194 100 2 -2 0 -24 -4 -49 -14 -70
-11 -232 5 -308 8 -38 28 -112 45 -164 l30 -96 41 -10 c36 -9 40 -8 36 6 -3 9
-17 58 -31 107 -50 166 -33 331 54 522 17 36 30 67 30 68 0 2 -39 25 -87 51
l-88 47 -42 -15 c-71 -25 -287 -148 -385 -218 l-93 -67 -3 66 c-1 36 1 131 5
211 l8 145 40 -1 c91 -3 538 18 640 29 l110 12 -51 37 -51 37 -94 -11 c-135
-17 -780 -17 -937 1 -68 7 -126 11 -129 7 -3 -3 -8 -28 -11 -56 -2 -27 -10
-54 -16 -59 -6 -5 -69 -28 -141 -51 -152 -49 -201 -50 -260 -5 -49 37 -61 66
-45 105 14 33 31 38 50 15 17 -20 77 -30 106 -16 31 14 47 53 35 84 -12 31
-68 57 -134 64 -41 3 -61 0 -97 -19z m470 -355 c1 -37 -55 -493 -60 -493 -3 0
-20 23 -39 50 -45 67 -201 215 -279 265 -34 22 -62 42 -62 45 0 18 367 146
428 149 6 1 12 -7 12 -16z"/>
<path d="M13375 4706 c-74 -33 -110 -101 -77 -145 16 -22 27 -26 66 -25 39 0
52 6 84 37 21 20 43 37 50 37 21 0 45 -61 39 -101 -6 -49 -43 -121 -79 -156
-27 -26 -37 -53 -19 -53 15 0 97 99 126 151 14 27 28 70 31 96 14 123 -106
210 -221 159z"/>
<path d="M12444 4381 c-66 -40 -81 -94 -39 -136 43 -44 150 -29 189 27 22 31
20 84 -4 108 -27 27 -103 27 -146 1z"/>
<path d="M3316 15449 c-104 -34 -253 -107 -351 -170 -436 -283 -729 -799 -795
-1402 -19 -181 -11 -617 12 -617 24 0 214 156 323 265 391 389 695 930 834
1483 47 186 92 473 74 471 -4 0 -48 -13 -97 -30z"/>
<path d="M17010 15441 c0 -64 48 -326 85 -469 112 -423 326 -848 607 -1205
105 -133 351 -376 456 -451 46 -32 85 -56 88 -53 14 14 25 249 20 412 -10 351
-72 619 -208 905 -92 194 -190 333 -342 486 -186 186 -360 296 -595 378 -57
20 -105 36 -107 36 -2 0 -4 -18 -4 -39z"/>
<path d="M1498 14081 c-198 -268 -332 -557 -390 -842 -20 -99 -23 -142 -22
-329 0 -193 3 -228 27 -340 31 -148 99 -352 162 -486 57 -122 177 -334 189
-334 28 0 270 79 386 126 328 134 578 295 814 524 232 225 413 485 560 801
l44 97 -91 -20 c-272 -59 -590 -197 -817 -356 -251 -175 -509 -430 -715 -705
-32 -43 -59 -76 -61 -75 -1 2 9 44 22 93 29 107 68 327 86 480 16 144 16 637
0 780 -21 176 -51 350 -89 500 -19 77 -38 145 -41 151 -4 7 -30 -20 -64 -65z"/>
<path d="M18832 14033 c-77 -295 -102 -492 -109 -858 -7 -390 15 -616 88 -905
16 -63 29 -119 29 -123 0 -5 -27 27 -59 70 -193 255 -418 484 -635 647 -199
149 -434 272 -666 349 -138 46 -320 90 -320 78 0 -17 171 -344 220 -421 337
-529 791 -873 1415 -1073 177 -56 168 -56 203 1 58 95 142 258 187 367 256
610 207 1195 -147 1755 -62 99 -158 230 -169 230 -3 0 -20 -53 -37 -117z"/>
<path d="M841 11843 c-126 -346 -167 -580 -158 -887 8 -259 49 -434 158 -664
101 -215 321 -503 498 -651 l47 -40 145 97 c349 233 623 499 824 802 213 320
330 628 400 1053 2 15 1 27 -3 27 -15 0 -256 -142 -337 -198 -467 -324 -787
-771 -947 -1320 -17 -61 -33 -110 -34 -109 -1 1 -7 79 -14 172 -40 601 -158
1082 -367 1499 -51 101 -153 279 -173 299 -4 5 -22 -31 -39 -80z"/>
<path d="M19490 11838 c-217 -353 -367 -789 -440 -1283 -24 -158 -50 -441 -50
-539 0 -38 -3 -66 -7 -63 -3 4 -21 58 -39 120 -134 466 -415 893 -784 1190
-113 92 -297 213 -411 272 l-92 47 7 -48 c107 -749 520 -1369 1220 -1835 l150
-100 59 58 c250 246 365 397 477 628 191 395 219 821 85 1309 -37 136 -105
326 -116 326 -5 0 -31 -37 -59 -82z"/>
<path d="M2590 9728 c-151 -135 -282 -288 -404 -472 -94 -139 -194 -336 -250
-489 -85 -229 -143 -544 -146 -787 -2 -89 2 -97 -84 170 -147 453 -317 801
-547 1121 -111 155 -369 443 -383 428 -10 -10 -27 -199 -33 -359 -24 -751 284
-1308 942 -1703 l130 -78 92 96 c444 463 712 1003 778 1571 15 129 19 416 6
528 l-6 59 -95 -85z"/>
<path d="M17734 9753 c-14 -100 -8 -428 9 -558 61 -442 228 -846 505 -1218 91
-124 207 -259 296 -346 l66 -65 37 18 c71 33 205 118 306 194 227 169 415 385
530 611 124 241 176 440 197 742 11 170 -7 514 -30 557 -8 17 -212 -193 -312
-321 -293 -379 -524 -858 -681 -1412 l-14 -50 -7 110 c-34 546 -184 969 -487
1371 -76 101 -253 291 -349 374 l-58 51 -8 -58z"/>
<path d="M2949 7992 c-164 -252 -266 -480 -334 -747 -56 -218 -70 -332 -70
-585 0 -234 13 -354 56 -539 11 -46 18 -88 17 -92 -2 -4 -34 43 -72 104 -270
438 -577 797 -910 1065 -83 66 -294 209 -390 262 l-58 33 7 -64 c14 -131 67
-368 114 -510 161 -481 454 -825 890 -1044 122 -61 315 -132 448 -166 111 -28
91 -45 197 161 120 233 201 444 260 676 93 367 101 792 20 1153 -24 109 -95
342 -112 368 -4 7 -28 -21 -63 -75z"/>
<path d="M17373 7953 c-51 -155 -66 -215 -92 -358 -98 -546 -2 -1125 279
-1685 73 -146 120 -220 138 -220 36 0 265 72 383 120 560 227 916 641 1078
1250 27 102 57 257 75 389 l7 43 -68 -37 c-361 -197 -722 -526 -1033 -940 -89
-118 -232 -331 -303 -450 -15 -26 -30 -46 -32 -44 -2 2 5 40 16 84 82 344 83
746 2 1090 -34 147 -100 337 -163 470 -51 109 -181 336 -223 389 l-23 28 -41
-129z"/>
<path d="M16621 6296 c-130 -212 -250 -510 -305 -757 -75 -336 -75 -736 -1
-1115 25 -131 99 -408 115 -434 7 -12 31 -12 162 -2 293 22 522 79 738 183
176 85 304 174 438 303 178 172 301 347 422 598 58 121 144 338 136 345 -4 5
-192 -58 -295 -98 -42 -17 -134 -60 -206 -96 -363 -181 -690 -427 -1042 -782
-89 -90 -163 -162 -163 -159 0 3 18 44 40 91 168 358 249 785 220 1160 -21
282 -89 569 -194 818 l-13 30 -52 -85z"/>
<path d="M3730 6325 c-67 -157 -133 -393 -167 -600 -25 -156 -25 -524 0 -685
36 -227 107 -462 203 -667 23 -51 42 -93 40 -93 -1 0 -83 80 -181 178 -478
474 -891 747 -1389 918 -71 24 -131 42 -134 39 -10 -9 82 -239 149 -376 264
-532 648 -854 1186 -990 141 -36 307 -59 447 -62 l109 -2 19 55 c37 106 88
316 113 462 109 647 7 1236 -305 1768 -68 114 -65 113 -90 55z"/>
<path d="M15494 4938 c-424 -442 -654 -940 -719 -1558 -15 -139 -19 -524 -7
-595 7 -39 7 -39 72 -52 312 -64 608 -68 865 -12 362 78 697 281 966 584 101
114 279 355 279 378 0 26 -379 -24 -597 -78 -387 -95 -864 -309 -1218 -545
-124 -82 -124 -82 -23 51 278 367 432 740 489 1184 22 172 10 588 -20 701 -6
25 -9 24 -87 -58z"/>
<path d="M4831 4913 c-71 -552 44 -1113 321 -1567 60 -98 219 -319 238 -331 6
-3 10 -10 10 -15 0 -5 -48 21 -107 59 -494 313 -974 512 -1425 590 -135 23
-332 44 -371 39 l-28 -3 61 -89 c273 -400 582 -663 940 -801 96 -38 246 -77
365 -97 101 -16 442 -16 550 0 139 21 250 43 265 52 23 14 20 509 -3 683 -65
488 -225 890 -499 1255 -67 89 -282 322 -298 322 -4 0 -12 -44 -19 -97z"/>
<path d="M6680 2654 c-611 -27 -978 -55 -1317 -100 -68 -9 -123 -20 -123 -23
0 -8 52 -27 360 -131 479 -161 927 -262 1420 -320 574 -67 1239 -57 1850 27
153 21 233 27 370 27 267 -1 377 -26 672 -150 l110 -47 -299 -151 c-557 -284
-1083 -597 -1411 -839 l-83 -62 143 -3 c130 -2 145 -1 168 18 123 98 570 377
880 549 161 89 703 365 768 391 31 12 40 9 315 -128 513 -255 1099 -598 1349
-789 l56 -43 148 0 147 0 -64 48 c-339 255 -857 563 -1484 883 l-249 128 48
20 c156 68 332 131 397 145 204 42 401 44 672 6 382 -53 672 -72 1067 -72 859
0 1592 127 2408 419 100 36 182 69 182 73 0 12 -300 50 -595 75 -353 30 -696
46 -1115 52 -878 12 -1566 -45 -2105 -177 -256 -62 -457 -138 -932 -351 l-221
-100 -164 75 c-194 88 -407 180 -577 248 -376 150 -865 240 -1571 289 -149 10
-1065 20 -1220 13z"/>
</g>
</svg>
