<?xml version="1.0" standalone="no"?>
<!DOCTYPE svg PUBLIC "-//W3C//DTD SVG 20010904//EN"
 "http://www.w3.org/TR/2001/REC-SVG-20010904/DTD/svg10.dtd">
<svg version="1.0" xmlns="http://www.w3.org/2000/svg"
 width="512.000000pt" height="512.000000pt" viewBox="0 0 512.000000 512.000000"
 preserveAspectRatio="xMidYMid meet">

<g transform="translate(0.000000,512.000000) scale(0.100000,-0.100000)"
fill="#000000" stroke="none">
<path d="M768 2959 c-14 -8 -18 -24 -18 -74 l0 -65 -60 0 c-52 0 -60 2 -60 19
0 25 -19 31 -100 31 -80 0 -100 -6 -100 -29 0 -10 -14 -24 -32 -32 -18 -8 -43
-29 -55 -48 -22 -33 -23 -41 -23 -283 l0 -249 25 -24 24 -25 516 0 516 0 24
25 25 24 0 252 c0 283 -3 296 -72 326 -23 10 -38 24 -40 37 -3 20 -9 21 -98
21 -91 0 -95 -1 -98 -22 -3 -21 -9 -23 -58 -23 l-54 0 0 59 c0 86 -8 91 -138
91 -59 0 -115 -5 -124 -11z m232 -89 l0 -50 -110 0 -110 0 0 50 0 50 110 0
110 0 0 -50z m-13 -231 c70 -44 96 -161 50 -230 -37 -55 -81 -79 -147 -79 -47
0 -64 5 -97 29 -41 30 -73 89 -73 137 0 30 25 92 48 118 50 57 149 68 219 25z"/>
<path d="M867 2594 c-4 -4 -7 -22 -7 -40 0 -31 -2 -33 -37 -36 -30 -2 -38 -7
-38 -23 0 -16 8 -21 37 -23 35 -3 37 -5 40 -40 3 -32 6 -37 28 -37 22 0 25 5
28 37 3 35 5 37 40 40 29 2 37 7 37 23 0 16 -8 21 -37 23 -35 3 -37 5 -40 40
-2 28 -8 38 -23 40 -12 2 -24 0 -28 -4z"/>
<path d="M1550 2484 l0 -306 223 4 c243 4 266 9 320 66 34 35 48 88 37 138 -9
38 -64 104 -87 104 -19 0 -17 5 16 38 57 56 59 147 5 203 -48 50 -96 59 -316
59 l-198 0 0 -306z m337 175 c47 -18 57 -55 23 -89 -17 -17 -33 -20 -105 -20
l-85 0 0 60 0 60 69 0 c38 0 82 -5 98 -11z m36 -240 c41 -22 49 -59 20 -91
-14 -15 -32 -18 -120 -18 l-103 0 0 60 0 60 91 0 c50 0 100 -5 112 -11z"/>
<path d="M2220 2486 l0 -306 177 0 c245 0 321 24 400 128 40 53 53 98 53 187
0 119 -64 216 -175 267 -46 21 -66 23 -252 26 l-203 3 0 -305z m380 143 c73
-41 100 -139 58 -218 -36 -71 -64 -85 -169 -89 l-89 -4 0 166 0 166 81 0 c64
0 89 -4 119 -21z"/>
<path d="M3510 2485 l0 -305 90 0 90 0 0 120 0 120 115 0 115 0 0 -120 0 -120
90 0 90 0 0 305 0 305 -90 0 -90 0 0 -115 0 -115 -115 0 -115 0 0 115 0 115
-90 0 -90 0 0 -305z"/>
<path d="M4210 2485 l0 -305 90 0 90 0 0 80 0 80 45 0 c44 0 45 0 101 -80 l56
-80 89 0 c49 0 89 2 89 5 0 2 -28 45 -62 95 l-62 90 22 16 c66 46 92 98 92
181 -1 104 -50 173 -149 208 -33 11 -88 15 -222 15 l-179 0 0 -305z m347 150
c42 -28 43 -96 1 -135 -18 -16 -35 -20 -95 -20 l-73 0 0 91 0 92 72 -7 c40 -4
83 -13 95 -21z"/>
<path d="M3050 2640 c-96 -45 -143 -117 -144 -220 0 -77 23 -129 80 -180 49
-43 92 -60 168 -67 74 -7 161 15 203 52 l28 24 -43 44 -43 44 -37 -18 c-65
-33 -145 -21 -177 27 l-15 24 172 2 173 3 -1 62 c-1 81 -38 144 -108 188 -43
26 -60 30 -130 33 -65 2 -90 -2 -126 -18z m185 -125 c47 -46 36 -55 -70 -55
-105 0 -114 7 -70 54 34 36 105 37 140 1z"/>
</g>
</svg>
