<svg xmlns="http://www.w3.org/2000/svg" width="22" height="22" viewBox="0 0 512 512" version="1.1"><path d="" stroke="none" fill="#080404" fill-rule="evenodd"/><path d="M 187.275 1.539 C 177.875 4.071, 169.910 8.842, 162.500 16.379 C 158.650 20.296, 154.664 25.370, 153.641 27.655 C 151.782 31.809, 151.782 31.809, 138.641 32.156 C 127.451 32.452, 124.817 32.840, 120.900 34.768 C 111.363 39.464, 105.156 48.191, 104.250 58.178 C 103.722 64, 103.722 64, 71.611 64.035 C 49.176 64.060, 37.678 64.462, 33.453 65.369 C 17.232 68.852, 6.247 77.857, 1.664 91.428 C 0.136 95.955, -0 111.554, 0 282.997 C 0 450.922, 0.160 470.182, 1.595 475.068 C 6.703 492.456, 19.544 505.297, 36.932 510.405 C 41.804 511.836, 58.795 512, 202 512 C 345.205 512, 362.196 511.836, 367.068 510.405 C 384.456 505.297, 397.297 492.456, 402.405 475.068 C 403.826 470.230, 404 456.657, 404 350.834 C 404 232.032, 404 232.032, 401.184 228.879 C 397.377 224.619, 391.146 224.400, 387.159 228.386 C 384.500 231.045, 384.500 231.045, 384 349.772 C 383.500 468.500, 383.500 468.500, 381.142 473.714 C 378.206 480.208, 371.004 487.064, 364.472 489.583 C 359.647 491.443, 354.837 491.500, 201.500 491.500 C 43.500 491.500, 43.500 491.500, 38.286 489.142 C 31.792 486.206, 24.936 479.004, 22.417 472.472 C 20.552 467.636, 20.500 462.456, 20.500 283 C 20.500 109.982, 20.608 98.303, 22.230 95.338 C 24.579 91.046, 28.290 88.309, 34.388 86.371 C 38.506 85.062, 45.768 84.651, 71.750 84.255 C 104 83.763, 104 83.763, 104 92.958 C 104 101.788, 104.116 102.270, 106.923 105.077 C 109.846 108, 109.846 108, 202 108 C 294.154 108, 294.154 108, 297.077 105.077 C 299.882 102.271, 300 101.785, 300 92.989 C 300 83.824, 300 83.824, 330.250 84.184 C 359.204 84.528, 360.718 84.641, 365.599 86.830 C 371.969 89.687, 378.217 95.978, 381.161 102.500 C 383.237 107.099, 383.450 109.284, 383.817 129.721 C 384.204 151.268, 384.286 152.016, 386.523 154.430 C 390.823 159.070, 397.223 159.021, 401.585 154.314 C 403.991 151.718, 404 151.620, 404 129.035 C 404 111.216, 403.659 105.200, 402.405 100.932 C 397.297 83.544, 384.456 70.703, 367.068 65.595 C 362.616 64.288, 356.107 64, 330.957 64 C 300.278 64, 300.278 64, 299.750 58.178 C 298.844 48.191, 292.637 39.464, 283.100 34.768 C 279.183 32.840, 276.549 32.452, 265.359 32.156 C 252.218 31.809, 252.218 31.809, 250.359 27.655 C 249.336 25.370, 245.350 20.296, 241.500 16.379 C 233.938 8.687, 226.058 4.032, 216.297 1.489 C 209.192 -0.361, 194.235 -0.336, 187.275 1.539 M 195.115 21.118 C 183.706 23.035, 174.836 30.449, 169.852 42.237 C 165.610 52.270, 163.952 53, 145.408 53 C 130.683 53, 130.007 53.090, 127.306 55.412 C 124.500 57.824, 124.500 57.824, 124.158 72.912 C 123.817 88, 123.817 88, 202 88 C 280.183 88, 280.183 88, 279.842 72.912 C 279.500 57.824, 279.500 57.824, 276.694 55.412 C 273.993 53.090, 273.317 53, 258.592 53 C 240.152 53, 238.248 52.189, 234.435 42.711 C 227.844 26.325, 212.915 18.127, 195.115 21.118 M 463.558 110.250 C 461.886 111.723, 455.305 125.258, 444.502 149.441 C 428 186.381, 428 186.381, 428.010 339.941 C 428.020 493.500, 428.020 493.500, 430.377 498.500 C 433.187 504.458, 435.952 507.174, 442 509.916 C 446.120 511.784, 448.483 511.956, 470 511.956 C 491.517 511.956, 493.880 511.784, 498 509.916 C 504.048 507.174, 506.813 504.458, 509.623 498.500 C 511.980 493.500, 511.980 493.500, 511.990 432.766 C 512 372.032, 512 372.032, 509.184 368.879 C 506.838 366.254, 505.637 365.727, 502 365.727 C 498.363 365.727, 497.162 366.254, 494.816 368.879 C 492 372.032, 492 372.032, 492 408.516 C 492 445, 492 445, 470 445 C 448 445, 448 445, 448 322.500 C 448 200, 448 200, 470 200 C 492 200, 492 200, 492 247.854 C 492 295.708, 492 295.708, 494.415 298.314 C 498.822 303.069, 505.178 303.069, 509.585 298.314 C 512 295.708, 512 295.708, 512 241.044 C 512 186.381, 512 186.381, 495.498 149.441 C 484.695 125.258, 478.114 111.723, 476.442 110.250 C 474.729 108.740, 472.609 108, 470 108 C 467.391 108, 465.271 108.740, 463.558 110.250 M 103.296 146.353 C 88.423 152.015, 78.169 164.658, 75.999 180.008 C 73.134 200.273, 85.109 219.547, 104.593 226.031 C 114.336 229.273, 126.011 228.587, 135.332 224.225 C 147.879 218.354, 156.908 206.425, 159.278 192.587 C 162.373 174.518, 152.337 155.743, 135.315 147.759 C 129.393 144.982, 127.255 144.525, 119 144.277 C 110.985 144.036, 108.530 144.361, 103.296 146.353 M 461.784 161.750 C 454.319 178.500, 454.319 178.500, 462.159 178.790 C 466.472 178.950, 473.528 178.950, 477.841 178.790 C 485.681 178.500, 485.681 178.500, 478.216 161.750 C 474.110 152.537, 470.413 145, 470 145 C 469.587 145, 465.890 152.537, 461.784 161.750 M 196.879 162.816 C 194.254 165.162, 193.727 166.363, 193.727 170 C 193.727 173.637, 194.254 174.838, 196.879 177.184 C 200.032 180, 200.032 180, 261 180 C 321.968 180, 321.968 180, 325.121 177.184 C 327.746 174.838, 328.273 173.637, 328.273 170 C 328.273 166.363, 327.746 165.162, 325.121 162.816 C 321.968 160, 321.968 160, 261 160 C 200.032 160, 200.032 160, 196.879 162.816 M 114 164.948 C 97.562 168.211, 90.483 187.369, 101.203 199.578 C 111.083 210.831, 127.281 209.727, 135.934 197.211 C 138.131 194.034, 138.500 192.421, 138.500 186 C 138.500 179.533, 138.138 177.976, 135.871 174.696 C 132.606 169.971, 127.730 166.301, 123.627 165.478 C 121.907 165.133, 119.825 164.716, 119 164.552 C 118.175 164.387, 115.925 164.565, 114 164.948 M 389.595 180.527 C 385.445 182.691, 384.068 184.928, 384.032 189.561 C 383.959 198.847, 394.714 203.014, 401.427 196.300 C 406.418 191.310, 404.231 182.559, 397.339 179.939 C 394.017 178.676, 392.997 178.753, 389.595 180.527 M 196.879 210.816 C 194.254 213.162, 193.727 214.363, 193.727 218 C 193.727 221.637, 194.254 222.838, 196.879 225.184 C 200.032 228, 200.032 228, 261 228 C 321.968 228, 321.968 228, 325.121 225.184 C 327.746 222.838, 328.273 221.637, 328.273 218 C 328.273 214.363, 327.746 213.162, 325.121 210.816 C 321.968 208, 321.968 208, 261 208 C 200.032 208, 200.032 208, 196.879 210.816 M 103.296 266.353 C 88.423 272.015, 78.169 284.658, 75.999 300.008 C 73.134 320.273, 85.109 339.547, 104.593 346.031 C 114.336 349.273, 126.011 348.587, 135.332 344.225 C 147.879 338.354, 156.908 326.425, 159.278 312.587 C 162.373 294.518, 152.337 275.743, 135.315 267.759 C 129.393 264.982, 127.255 264.525, 119 264.277 C 110.985 264.036, 108.530 264.361, 103.296 266.353 M 196.879 282.816 C 194.254 285.162, 193.727 286.363, 193.727 290 C 193.727 293.637, 194.254 294.838, 196.879 297.184 C 200.032 300, 200.032 300, 261 300 C 321.968 300, 321.968 300, 325.121 297.184 C 327.746 294.838, 328.273 293.637, 328.273 290 C 328.273 286.363, 327.746 285.162, 325.121 282.816 C 321.968 280, 321.968 280, 261 280 C 200.032 280, 200.032 280, 196.879 282.816 M 114 284.948 C 97.562 288.211, 90.483 307.369, 101.203 319.578 C 111.083 330.831, 127.281 329.727, 135.934 317.211 C 138.131 314.034, 138.500 312.421, 138.500 306 C 138.500 299.533, 138.138 297.976, 135.871 294.696 C 132.606 289.971, 127.730 286.301, 123.627 285.478 C 121.907 285.133, 119.825 284.716, 119 284.552 C 118.175 284.387, 115.925 284.565, 114 284.948 M 494.923 324.923 C 492.631 327.216, 492 328.742, 492 332 C 492 335.258, 492.631 336.784, 494.923 339.077 C 501.365 345.518, 512 341.111, 512 332 C 512 328.742, 511.369 327.216, 509.077 324.923 C 506.784 322.631, 505.258 322, 502 322 C 498.742 322, 497.216 322.631, 494.923 324.923 M 196.879 330.816 C 194.254 333.162, 193.727 334.363, 193.727 338 C 193.727 341.637, 194.254 342.838, 196.879 345.184 C 200.032 348, 200.032 348, 261 348 C 321.968 348, 321.968 348, 325.121 345.184 C 327.746 342.838, 328.273 341.637, 328.273 338 C 328.273 334.363, 327.746 333.162, 325.121 330.816 C 321.968 328, 321.968 328, 261 328 C 200.032 328, 200.032 328, 196.879 330.816 M 103.296 386.353 C 88.423 392.015, 78.169 404.658, 75.999 420.008 C 73.134 440.273, 85.109 459.547, 104.593 466.031 C 114.336 469.273, 126.011 468.587, 135.332 464.225 C 147.879 458.354, 156.908 446.425, 159.278 432.587 C 162.373 414.518, 152.337 395.743, 135.315 387.759 C 129.393 384.982, 127.255 384.525, 119 384.277 C 110.985 384.036, 108.530 384.361, 103.296 386.353 M 196.879 402.816 C 194.254 405.162, 193.727 406.363, 193.727 410 C 193.727 413.637, 194.254 414.838, 196.879 417.184 C 200.032 420, 200.032 420, 261 420 C 321.968 420, 321.968 420, 325.121 417.184 C 327.746 414.838, 328.273 413.637, 328.273 410 C 328.273 406.363, 327.746 405.162, 325.121 402.816 C 321.968 400, 321.968 400, 261 400 C 200.032 400, 200.032 400, 196.879 402.816 M 114 404.948 C 97.562 408.211, 90.483 427.369, 101.203 439.578 C 111.083 450.831, 127.281 449.727, 135.934 437.211 C 138.131 434.034, 138.500 432.421, 138.500 426 C 138.500 419.533, 138.138 417.976, 135.871 414.696 C 132.606 409.971, 127.730 406.301, 123.627 405.478 C 121.907 405.133, 119.825 404.716, 119 404.552 C 118.175 404.387, 115.925 404.565, 114 404.948 M 196.879 450.816 C 194.254 453.162, 193.727 454.363, 193.727 458 C 193.727 461.637, 194.254 462.838, 196.879 465.184 C 200.032 468, 200.032 468, 261 468 C 321.968 468, 321.968 468, 325.121 465.184 C 327.746 462.838, 328.273 461.637, 328.273 458 C 328.273 454.363, 327.746 453.162, 325.121 450.816 C 321.968 448, 321.968 448, 261 448 C 200.032 448, 200.032 448, 196.879 450.816 M 448 477.429 C 448 486.485, 448.326 489.183, 449.571 490.429 C 451.909 492.766, 488.091 492.766, 490.429 490.429 C 491.674 489.183, 492 486.485, 492 477.429 C 492 466, 492 466, 470 466 C 448 466, 448 466, 448 477.429" stroke="none" fill="#040404" fill-rule="evenodd"/></svg>